# xmcd
#
# Track frame offsets: 
#        150
#        14100
#        28752
#        46710
#        62545
#        79985
#        91482
#        107937
#        123627
#        139307
#
# Disc length: 2107 seconds
#
# Revision: 4
# Processed by: cddbd v1.5.2PL0 Copyright (c) Steve Scherf et al.
# Submitted via: ExactAudioCopy v0.95a5
#
DISCID=8c08390a
DTITLE=Paul Overstreet - Time
DYEAR=1996
DGENRE=Country
TTITLE0=We've Got to Keep on Meeting Like This
TTITLE1=I'm Gonna Ring Her
TTITLE2=Even When It Don't Feel Like It
TTITLE3=Let's Go to Bed Early
TTITLE4=You Gave Me Time
TTITLE5=I Always Will
TTITLE6=One in a Million
TTITLE7=Blackberry Cobbler
TTITLE8=Mr. Miller
TTITLE9=My Rock
EXTD=
EXTT0=
EXTT1=
EXTT2=
EXTT3=
EXTT4=
EXTT5=
EXTT6=
EXTT7=
EXTT8=
EXTT9=
PLAYORDER=
